<svg xmlns="http://www.w3.org/2000/svg" width="32" height="32" viewBox="0 0 32 32">
  <g id="logo_instragram" transform="translate(-170 -714)">
    <rect id="circle" width="32" height="32" rx="16" transform="translate(170 714)" fill="#ccc"/>
    <g id="btn_soc_intstagram" transform="translate(34.233 573.668)">
      <path id="패스_9424" data-name="패스 9424" d="M155.149,148.332h-6.764a4.618,4.618,0,0,0-4.618,4.618v6.764a4.618,4.618,0,0,0,4.618,4.618h6.764a4.618,4.618,0,0,0,4.618-4.618V152.95A4.618,4.618,0,0,0,155.149,148.332Zm3.145,11.5a3.066,3.066,0,0,1-3.066,3.066h-6.922a3.066,3.066,0,0,1-3.066-3.066v-6.922a3.066,3.066,0,0,1,3.066-3.066h6.922a3.066,3.066,0,0,1,3.066,3.066Z" transform="translate(0 0)" fill="#fff"/>
      <path id="패스_9425" data-name="패스 9425" d="M234.032,235.335a4.151,4.151,0,1,0,4.151,4.151A4.151,4.151,0,0,0,234.032,235.335Zm0,6.843a2.691,2.691,0,1,1,2.691-2.691A2.691,2.691,0,0,1,234.032,242.178Z" transform="translate(-82.265 -83.115)" fill="#fff"/>
      <circle id="타원_948" data-name="타원 948" cx="0.967" cy="0.967" r="0.967" transform="translate(155.09 151.095)" fill="#fff"/>
    </g>
  </g>
</svg>
