<svg xmlns="http://www.w3.org/2000/svg" width="32" height="32" viewBox="0 0 32 32">
  <g id="그룹_5228" data-name="그룹 5228" transform="translate(-218 -573.995)">
    <rect id="사각형_26286" data-name="사각형 26286" width="32" height="32" rx="16" transform="translate(218 573.995)" fill="#ccc"/>
    <path id="Fill-195" d="M16.091,3.243a3.246,3.246,0,0,0-.613-1.5A2.226,2.226,0,0,0,13.933,1.1C11.775.943,8.539.943,8.539.943H8.532S5.3.943,3.138,1.1a2.226,2.226,0,0,0-1.545.642,3.244,3.244,0,0,0-.613,1.5A22.539,22.539,0,0,0,.826,5.7v1.15A22.537,22.537,0,0,0,.98,9.3a3.244,3.244,0,0,0,.613,1.5,2.641,2.641,0,0,0,1.7.648c1.234.116,5.242.152,5.242.152s3.24,0,5.4-.158a2.225,2.225,0,0,0,1.545-.642,3.247,3.247,0,0,0,.613-1.5,22.59,22.59,0,0,0,.154-2.453V5.7A22.591,22.591,0,0,0,16.091,3.243Zm-9.147,5V3.98l4.166,2.137Z" transform="translate(225.409 583.936)" fill="#fff" fill-rule="evenodd"/>
  </g>
</svg>
